<?xml version="1.0" standalone="no"?>
<!DOCTYPE svg PUBLIC "-//W3C//DTD SVG 20010904//EN"
 "http://www.w3.org/TR/2001/REC-SVG-20010904/DTD/svg10.dtd">
<svg version="1.0" xmlns="http://www.w3.org/2000/svg"
 width="458.000000pt" height="458.000000pt" viewBox="0 0 458.000000 458.000000"
 preserveAspectRatio="xMidYMid meet">
<metadata>
Created by potrace 1.14, written by Peter Selinger 2001-2017
</metadata>
<g transform="translate(0.000000,458.000000) scale(0.100000,-0.100000)"
fill="#000000" stroke="none">
<path d="M0 2290 l0 -2290 2290 0 2290 0 0 2290 0 2290 -2290 0 -2290 0 0
-2290z m4210 1658 c0 -229 -2 -264 -17 -280 -19 -21 -66 -24 -82 -5 -7 9 -12
89 -13 223 l-3 209 -1805 0 -1805 0 -3 -1052 -2 -1053 -24 -15 c-27 -18 -69
-7 -80 20 -3 9 -6 511 -6 1116 l0 1099 1920 0 1920 0 0 -262z m-2437 -396 c9
-8 17 -25 17 -38 0 -41 -279 -1787 -296 -1849 -63 -237 -243 -455 -459 -555
-105 -49 -154 -60 -267 -60 -168 0 -303 56 -424 175 -118 117 -194 303 -194
475 0 51 4 65 25 85 30 30 54 31 89 4 23 -18 26 -28 26 -77 1 -212 110 -395
286 -479 77 -37 82 -38 194 -38 137 1 189 17 302 98 125 90 239 251 282 397 9
30 79 453 156 940 77 487 144 895 150 908 18 42 73 49 113 14z m1187 -22 c11
-11 20 -32 20 -46 0 -57 -93 -611 -106 -631 -31 -50 -115 -30 -122 28 -1 13
18 153 43 310 25 158 45 291 45 297 0 5 9 21 21 36 25 32 70 35 99 6z m1418 4
c38 -26 30 -73 -26 -146 -1116 -1461 -1777 -2325 -1786 -2330 -20 -13 -69 -8
-88 9 -10 9 -18 30 -18 49 0 18 50 345 110 727 61 382 110 699 110 705 0 8
-125 12 -446 14 l-446 3 -19 24 c-25 30 -24 66 1 91 19 19 33 20 523 20 276 0
507 -4 513 -8 37 -25 36 -33 -65 -674 -55 -342 -98 -624 -97 -626 2 -1 372
481 824 1072 452 591 827 1076 834 1079 25 10 54 7 76 -9z m-188 -854 c20 -20
20 -33 20 -1165 l0 -1145 -1920 0 -1920 0 0 262 c0 229 2 264 17 280 19 21 66
24 82 5 7 -9 12 -89 13 -223 l3 -209 1805 0 1805 0 2 1090 3 1090 21 18 c28
22 44 22 69 -3z"/>
</g>
</svg>
